<svg width="1700" height="500" viewBox="0 0 1700 500" fill="none" xmlns="http://www.w3.org/2000/svg">
<g clip-path="url(#clip0)">
<rect width="1700" height="500" fill="#FAFAFA"/>
<rect x="34.5" y="-58.5" width="288" height="617" fill="white" stroke="#F5F5F5" stroke-width="11"/>
<path d="M718.986 228.344H745.861C742.441 203.607 720.635 186.199 692.355 186.199C659.311 186.199 633.841 210.02 633.841 250.577C633.841 290.156 657.662 314.71 692.905 314.71C724.483 314.71 747.022 294.737 747.022 261.815V246.057H694.676V265.969H721.551C721.185 281.483 710.618 291.317 693.027 291.317C673.176 291.317 660.655 276.474 660.655 250.332C660.655 224.312 673.665 209.592 692.783 209.592C706.404 209.592 715.627 216.616 718.986 228.344ZM793.152 314.771C807.017 314.771 815.996 308.724 820.577 299.99H821.31V313H845.986V249.722C845.986 227.366 827.051 217.96 806.162 217.96C783.685 217.96 768.903 228.71 765.3 245.812L789.365 247.767C791.136 241.537 796.695 236.956 806.04 236.956C814.896 236.956 819.966 241.415 819.966 249.111V249.477C819.966 255.524 813.553 256.318 797.244 257.906C778.676 259.616 762.001 265.847 762.001 286.797C762.001 305.365 775.256 314.771 793.152 314.771ZM800.604 296.814C792.602 296.814 786.861 293.088 786.861 285.942C786.861 278.612 792.908 275.009 802.07 273.726C807.75 272.932 817.034 271.588 820.149 269.511V279.467C820.149 289.301 812.026 296.814 800.604 296.814ZM865.684 313H944.538V292.233H899.827V291.561L942.95 236.101V219.182H867.272V239.949H911.616V240.621L865.684 297.486V313ZM1004.5 314.832C1027.71 314.832 1043.35 303.533 1047.01 286.125L1022.95 284.537C1020.32 291.683 1013.6 295.409 1004.93 295.409C991.92 295.409 983.674 286.797 983.674 272.81V272.749H1047.56V265.602C1047.56 233.719 1028.26 217.96 1003.46 217.96C975.856 217.96 957.96 237.567 957.96 266.518C957.96 296.264 975.612 314.832 1004.5 314.832ZM983.674 256.624C984.224 245.935 992.348 237.384 1003.89 237.384C1015.19 237.384 1023.01 245.446 1023.07 256.624H983.674ZM1065.03 313H1091.48V261.327H1145.17V313H1171.56V187.909H1145.17V239.521H1091.48V187.909H1065.03V313ZM1253.04 273.054C1253.1 285.636 1244.48 292.233 1235.14 292.233C1225.31 292.233 1218.95 285.331 1218.89 274.276V219.182H1192.87V278.918C1192.93 300.845 1205.76 314.222 1224.63 314.222C1238.74 314.222 1248.88 306.953 1253.1 295.959H1254.07V313H1279.06V219.182H1253.04V273.054ZM1300.36 313H1326.01V297.974H1327.17C1330.77 305.793 1338.65 314.527 1353.8 314.527C1375.18 314.527 1391.85 297.608 1391.85 266.213C1391.85 233.963 1374.45 217.96 1353.86 217.96C1338.16 217.96 1330.65 227.305 1327.17 234.94H1326.38V187.909H1300.36V313ZM1325.83 266.091C1325.83 249.355 1332.91 238.666 1345.56 238.666C1358.44 238.666 1365.28 249.844 1365.28 266.091C1365.28 282.46 1358.32 293.821 1345.56 293.821C1333.03 293.821 1325.83 282.827 1325.83 266.091Z" fill="#525252"/>
<rect x="97" y="129" width="34.3158" height="241.436" fill="#14B8A6"/>
<rect x="139.895" y="225.82" width="34.3158" height="47.797" fill="#3B82F6"/>
<rect x="182.789" y="225.82" width="34.3158" height="47.797" fill="#3B82F6"/>
<rect x="225.684" y="129" width="34.3158" height="241.436" fill="#14B8A6"/>
</g>
<defs>
<clipPath id="clip0">
<rect width="1700" height="500" fill="white"/>
</clipPath>
</defs>
</svg>
